<?xml version="1.0" encoding="UTF-8" standalone="no"?>
<svg xmlns="http://www.w3.org/2000/svg" version="1.1" xmlns:xlink="http://www.w3.org/1999/xlink" xmlns:svgjs="http://svgjs.dev/svgjs" width="2000" height="2000" viewBox="0 0 2000 2000"><g transform="matrix(1,0,0,1,-0.28443113772425477,-0.28443113772459583)"><svg viewBox="0 0 334 334" data-background-color="#ffffff" preserveAspectRatio="xMidYMid meet" height="2000" width="2000" xmlns="http://www.w3.org/2000/svg" xmlns:xlink="http://www.w3.org/1999/xlink"><g id="tight-bounds" transform="matrix(1,0,0,1,0.04749999999998522,0.04750000000001364)"><svg viewBox="0 0 333.90454557049503 333.90454557049503" height="333.90454557049503" width="333.90454557049503"><g><svg></svg></g><g><svg viewBox="0 0 333.90454557049503 333.90454557049503" height="333.90454557049503" width="333.90454557049503"><g><path d="M0 166.952c0-92.205 74.747-166.952 166.952-166.952 92.205 0 166.952 74.747 166.953 166.952 0 92.205-74.747 166.952-166.953 166.953-92.205 0-166.952-74.747-166.952-166.953zM166.952 316.63c82.665 0 149.677-67.013 149.678-149.678 0-82.665-67.013-149.677-149.678-149.677-82.665 0-149.677 67.013-149.677 149.677 0 82.665 67.013 149.677 149.677 149.678z" data-fill-palette-color="tertiary" fill="#ba3b0a" stroke="transparent"></path><ellipse rx="160.27418187383762" ry="160.27418187383762" cx="166.95227278524752" cy="166.95227278524752" fill="#ba3b0a" stroke="transparent" stroke-width="0" fill-opacity="1" data-fill-palette-color="tertiary"></ellipse></g><g transform="matrix(1,0,0,1,64.70148321129204,71.17305217166897)"><svg viewBox="0 0 204.50157914791095 191.5584412271571" height="191.5584412271571" width="204.50157914791095"><g><svg viewBox="0 0 204.50157914791095 191.5584412271571" height="191.5584412271571" width="204.50157914791095"><g><svg viewBox="0 0 204.50157914791095 191.5584412271571" height="191.5584412271571" width="204.50157914791095"><g><svg viewBox="0 0 204.50157914791095 191.5584412271571" height="191.5584412271571" width="204.50157914791095"><g><svg viewBox="0 0 204.50157914791095 191.5584412271571" height="191.5584412271571" width="204.50157914791095"><g><svg viewBox="0 0 204.50157914791095 191.5584412271571" height="191.5584412271571" width="204.50157914791095"><g transform="matrix(1,0,0,1,0,0)"><svg width="204.50157914791095" viewBox="1.1 -44.4 47.4 44.4" height="191.5584412271571" data-palette-color="#ffffff"><path d="M1.9 0Q1.6 0 1.6-0.6L1.6-0.6Q1.6-1.3 1.98-1.9 2.35-2.5 3.15-3.2L3.15-3.2Q3.95-4 4.3-4.45 4.65-4.9 4.93-5.75 5.2-6.6 5.6-8.35L5.6-8.35 10.15-30.25 9.85-30.25Q9.6-30.25 8.8-30.35L8.8-30.35Q7.8-30.55 6.7-30.55L6.7-30.55Q5.25-30.55 4.28-30.15 3.3-29.75 2.5-28.7L2.5-28.7Q2.25-28.35 2-28.13 1.75-27.9 1.55-27.9L1.55-27.9Q1.1-27.9 1.1-28.4L1.1-28.4Q1.1-28.9 1.2-29.2L1.2-29.2Q1.7-31.75 3.65-33.23 5.6-34.7 8.55-34.7L8.55-34.7Q9.15-34.7 10.45-34.6L10.45-34.6Q11.6-34.45 12.85-34.45L12.85-34.45Q13.3-34.45 15.1-34.6L15.1-34.6Q16-34.7 16.35-34.7L16.35-34.7Q16.25-33.4 16.25-32.45L16.25-32.45Q16.25-30.6 16.7-28.18 17.15-25.75 18.15-21.4L18.15-21.4 19.7-14.75Q20.05-13.75 20.15-13L20.15-13Q25.3-22.3 26.98-25.53 28.65-28.75 29.8-31.25L29.8-31.25Q30.4-32.45 30.75-33.25L30.75-33.25Q32.75-37.35 34.38-39.45 36-41.55 38.25-42.65L38.25-42.65Q39.75-43.4 41.45-43.65 43.15-43.9 45.4-43.9L45.4-43.9Q46.55-43.9 47.1-44.1L47.1-44.1Q47.45-44.2 47.7-44.3 47.95-44.4 48.1-44.4L48.1-44.4Q48.5-44.4 48.5-43.85L48.5-43.85Q48.5-42.8 47.25-41.8 46-40.8 44.6-40.8L44.6-40.8Q42.95-40.75 41.9-40.6 40.85-40.45 39.85-40L39.85-40Q37.95-39.1 36.95-36.75 35.95-34.4 35.3-29.75L35.3-29.75Q34.95-27.6 34.68-24.95 34.4-22.3 34.15-19.45L34.15-19.45Q33.5-12.15 32.9-7.3L32.9-7.3Q32.85-6.35 32.52-5.58 32.2-4.8 31.75-4.4L31.75-4.4 31.75-4.35Q32.75-3.85 33.75-3.85L33.75-3.85Q34.45-3.85 35.18-4.13 35.9-4.4 36.1-4.4L36.1-4.4Q36.3-4.4 36.38-4.3 36.45-4.2 36.45-3.9L36.45-3.9Q36.45-3.25 35.85-2.6L35.85-2.6Q33.85 0 31.95 0L31.95 0Q31.25 0 30-0.35L30-0.35Q29.85-0.4 29.05-0.6 28.25-0.8 27.45-0.8L27.45-0.8Q26.4-0.8 25.48-0.4 24.55 0 24.35 0L24.35 0Q24 0 24-0.6L24-0.6Q24-1.95 25.6-3.2L25.6-3.2 26.5-3.9Q27.1-4.35 27.33-4.63 27.55-4.9 27.6-5.5L27.6-5.5 27.7-6.55Q28.5-15.25 28.8-17.53 29.1-19.8 29.45-22.95L29.45-22.95 29.4-22.95Q27.3-19.6 25.05-15.2 22.8-10.8 21.4-7.2L21.4-7.2Q20.3-5.35 18.82-3.6 17.35-1.85 16.8-1.85L16.8-1.85Q16.65-1.85 16.57-2.02 16.5-2.2 16.5-2.5L16.5-2.5Q16.1-6.1 15.88-7.78 15.65-9.45 14.9-12.85L14.9-12.85Q14.55-14.35 13.88-17.25 13.2-20.15 12.9-21.75L12.9-21.75 12.85-21.8 9.8-6.65Q9.75-6.5 9.47-5.58 9.2-4.65 8.8-4.3L8.8-4.3 8.8-4.2Q9.75-3.85 10.6-3.85L10.6-3.85Q11.35-3.85 11.93-4.13 12.5-4.4 12.7-4.4L12.7-4.4Q13.1-4.4 13.1-3.9L13.1-3.9Q13.1-3.45 12.5-2.6L12.5-2.6Q11.4-1.1 10.6-0.55 9.8 0 8.8 0L8.8 0Q8.1 0 7.1-0.4L7.1-0.4Q5.9-0.8 5.1-0.8L5.1-0.8Q3.95-0.8 3-0.4 2.05 0 1.9 0L1.9 0Z" opacity="1" transform="matrix(1,0,0,1,0,0)" fill="#ffffff" class="undefined-text-0" data-fill-palette-color="quaternary" id="text-0"></path></svg></g></svg></g></svg></g></svg></g><g></g></svg></g></svg></g></svg></g></svg></g><defs></defs></svg><rect width="333.90454557049503" height="333.90454557049503" fill="none" stroke="none" visibility="hidden"></rect></g></svg></g></svg>